<?xml version="1.0" encoding="utf-8"?>
<!-- Generator: Adobe Illustrator 27.5.0, SVG Export Plug-In . SVG Version: 6.00 Build 0)  -->
<svg version="1.1" xmlns="http://www.w3.org/2000/svg" xmlns:xlink="http://www.w3.org/1999/xlink" x="0px" y="0px"
	 viewBox="0 0 500 500" style="enable-background:new 0 0 500 500;" xml:space="preserve">
<g id="BACKGROUND_2">
</g>
<g id="BACKGROUND_1">
	<g>
		<rect style="fill:#1D1C3E;" width="500" height="500"/>
		<g>
			<g>
				
					<text transform="matrix(1 0 0 1 208.755 123.2899)" style="fill:#EC407A; font-family:'Raleway-Bold'; font-size:28.1253px; letter-spacing:2;">Oops!</text>
			</g>
			
				<text transform="matrix(1 0 0 1 156.0816 397.6886)" style="fill:#FAFAFA; font-family:'Roboto-Regular'; font-size:11.3222px; letter-spacing:1;">Looks like this page doesn’t exist.</text>
			<circle style="fill:#2A2550;" cx="252.333" cy="249.743" r="89.5"/>
			<g>
				<g>
					
						<text transform="matrix(1 0 0 1 117.0212 284.688)" style="fill:#4DD0E1; font-family:'Raleway-Bold'; font-size:144px; letter-spacing:14;">4</text>
				</g>
				<g>
					
						<text transform="matrix(1 0 0 1 291.0211 284.688)" style="fill:#4DD0E1; font-family:'Raleway-Bold'; font-size:144px; letter-spacing:14;">4</text>
				</g>
				<g>
					<path style="fill:#FFFFFF;" d="M232.783,349.462l-0.899-0.438c0.116-0.238,11.531-24.192,6.292-52.356
						c-5.307-28.526,7.602-49.81,7.733-50.02l0.851,0.525c-0.129,0.209-12.835,21.181-7.6,49.312
						C244.46,324.984,232.9,349.221,232.783,349.462z"/>
					<g>
						<path style="fill:#EC407A;" d="M298.891,201.55c8.344-28.486-4.073-47.042-24.356-52.983
							c-20.282-5.941-40.748,2.982-49.093,31.468c-8.121,27.725,0.833,54.895,20.017,61.806c-2.202,1.34-6.79,4.403-7.804,7.203
							c-0.485,1.656,6.445,3.429,6.445,3.429s6.791,2.246,7.276,0.59c0.657-2.904-1.554-7.958-2.685-10.275
							C268.571,247.32,290.769,229.275,298.891,201.55z"/>
						<path style="fill:#DC8EAE;" d="M292.78,172.274c-1.332-3.582-4.487-6.128-8.516-5.121c-3.402,0.85-6.459,4.918-5.121,8.516
							c1.9,5.11,1.761,9.752-0.403,14.758c-1.523,3.524,1.434,7.741,4.767,8.717c4.017,1.176,7.198-1.253,8.717-4.767
							C295.214,187.459,295.406,179.336,292.78,172.274z"/>
						<path style="fill:#DC8EAE;" d="M280.444,204.683c-6.255-1.832-9.096,7.867-2.841,9.699
							C283.858,216.214,286.699,206.516,280.444,204.683z"/>
					</g>
				</g>
				
					<rect x="246.854" y="239.317" transform="matrix(0.2554 -0.9668 0.9668 0.2554 -50.5114 419.8998)" style="fill:#FFFFFF;" width="1" height="6.852"/>
			</g>
			<circle style="fill:#392F5D;" cx="169" cy="174.577" r="5.667"/>
			<path style="fill:#392F5D;" d="M294.667,332.243c0,3.13-2.537,5.667-5.667,5.667c-3.13,0-5.667-2.537-5.667-5.667
				s2.537-5.667,5.667-5.667C292.13,326.577,294.667,329.114,294.667,332.243z"/>
			<path style="fill:#392F5D;" d="M392,246.243c0,2.025-1.642,3.667-3.667,3.667c-2.025,0-3.667-1.642-3.667-3.667
				c0-2.025,1.642-3.667,3.667-3.667C390.358,242.577,392,244.218,392,246.243z"/>
			<path style="fill:#392F5D;" d="M321.667,188.91c0,2.025-1.642,3.667-3.667,3.667c-2.025,0-3.667-1.642-3.667-3.667
				c0-2.025,1.642-3.667,3.667-3.667C320.025,185.243,321.667,186.885,321.667,188.91z"/>
			<path style="fill:#392F5D;" d="M311.208,153.91c0,1.772-1.436,3.208-3.208,3.208c-1.772,0-3.208-1.436-3.208-3.208
				c0-1.772,1.436-3.208,3.208-3.208C309.772,150.702,311.208,152.138,311.208,153.91z"/>
			<circle style="fill:#392F5D;" cx="149" cy="201.577" r="1.576"/>
			<path style="fill:#392F5D;" d="M180.166,316.001c0,1.196-0.97,2.166-2.166,2.166c-1.196,0-2.166-0.97-2.166-2.166
				c0-1.197,0.97-2.166,2.166-2.166C179.196,313.835,180.166,314.805,180.166,316.001z"/>
			<path style="fill:#392F5D;" d="M349.5,188.077c0,1.197-0.97,2.166-2.166,2.166c-1.196,0-2.166-0.97-2.166-2.166
				c0-1.196,0.97-2.166,2.166-2.166C348.53,185.911,349.5,186.88,349.5,188.077z"/>
			<path style="fill:#392F5D;" d="M126.5,227.243c0,1.196-0.97,2.166-2.166,2.166c-1.196,0-2.166-0.97-2.166-2.166
				c0-1.196,0.97-2.166,2.166-2.166C125.53,225.077,126.5,226.047,126.5,227.243z"/>
			<path style="fill:#392F5D;" d="M210,156.91c0,1.196-0.97,2.166-2.166,2.166c-1.197,0-2.166-0.97-2.166-2.166
				c0-1.196,0.97-2.166,2.166-2.166C209.03,154.743,210,155.713,210,156.91z"/>
			<path style="fill:#392F5D;" d="M109.5,279.577c0,1.196-0.97,2.166-2.166,2.166c-1.196,0-2.166-0.97-2.166-2.166
				c0-1.196,0.97-2.166,2.166-2.166C108.53,277.41,109.5,278.38,109.5,279.577z"/>
			<path style="fill:#392F5D;" d="M394.833,280.91c0,1.197-0.97,2.166-2.166,2.166c-1.197,0-2.166-0.97-2.166-2.166
				c0-1.196,0.97-2.166,2.166-2.166C393.863,278.743,394.833,279.713,394.833,280.91z"/>
			<circle style="fill:#392F5D;" cx="190" cy="335.66" r="3.25"/>
			<path style="fill:#392F5D;" d="M139,302.243c0,2.025-1.642,3.667-3.667,3.667c-2.025,0-3.667-1.642-3.667-3.667
				c0-2.025,1.642-3.667,3.667-3.667C137.358,298.577,139,300.218,139,302.243z"/>
			<path style="fill:#392F5D;" d="M332.333,336.243c0,2.025-1.642,3.667-3.667,3.667c-2.025,0-3.667-1.642-3.667-3.667
				c0-2.025,1.642-3.667,3.667-3.667C330.692,332.577,332.333,334.218,332.333,336.243z"/>
			<ellipse style="fill:#392F5D;" cx="253.333" cy="363.243" rx="117" ry="8"/>
		</g>
	</g>
</g>
<g id="DESIGNED_BY_FREEPIK">
	<g id="XMLID_62_">
		<g id="XMLID_99_">
			<path id="XMLID_120_" style="fill:#FAFAFA;" d="M181.087,466.63c-0.246,0-0.435,0.085-0.567,0.255
				c-0.133,0.17-0.199,0.421-0.199,0.753v2.392c-0.305-0.331-0.617-0.579-0.937-0.739c-0.321-0.159-0.715-0.24-1.181-0.24
				c-0.807,0-1.458,0.283-1.953,0.848c-0.494,0.566-0.742,1.356-0.742,2.369c0,0.478,0.063,0.923,0.187,1.335
				c0.124,0.412,0.307,0.77,0.549,1.074c0.241,0.304,0.527,0.539,0.857,0.704c0.33,0.164,0.69,0.246,1.078,0.246
				c0.293,0,0.563-0.04,0.809-0.122c0.248-0.081,0.477-0.2,0.689-0.356c0.212-0.156,0.427-0.359,0.644-0.608v0.16
				c0,0.297,0.072,0.525,0.217,0.685c0.145,0.161,0.328,0.24,0.549,0.24c0.226,0,0.409-0.078,0.552-0.231
				c0.143-0.154,0.214-0.386,0.214-0.694v-7.146c0-0.305-0.066-0.534-0.199-0.691C181.521,466.709,181.332,466.63,181.087,466.63z
				 M180.021,473.471c-0.14,0.306-0.328,0.533-0.563,0.682c-0.236,0.149-0.496,0.223-0.781,0.223c-0.281,0-0.54-0.079-0.777-0.236
				c-0.237-0.155-0.424-0.388-0.561-0.696c-0.136-0.309-0.204-0.682-0.204-1.122c0-0.416,0.063-0.78,0.193-1.095
				c0.128-0.315,0.309-0.556,0.543-0.724c0.233-0.168,0.499-0.253,0.795-0.253c0.285,0,0.547,0.082,0.786,0.246
				c0.239,0.165,0.429,0.402,0.569,0.712c0.141,0.311,0.211,0.682,0.211,1.114C180.232,472.78,180.162,473.164,180.021,473.471z"/>
			<path id="XMLID_117_" style="fill:#FAFAFA;" d="M188.452,472.551c0.233-0.122,0.35-0.385,0.35-0.793
				c0-0.438-0.113-0.87-0.339-1.294c-0.225-0.423-0.564-0.769-1.018-1.035c-0.453-0.268-0.996-0.4-1.628-0.4
				c-0.487,0-0.93,0.078-1.33,0.234c-0.4,0.157-0.736,0.381-1.009,0.674c-0.273,0.293-0.48,0.644-0.623,1.054
				c-0.143,0.409-0.214,0.853-0.214,1.332c0,1.017,0.289,1.822,0.867,2.415c0.577,0.592,1.387,0.89,2.428,0.89
				c0.455,0,0.858-0.059,1.207-0.178c0.352-0.12,0.641-0.268,0.873-0.448c0.231-0.18,0.404-0.368,0.519-0.564
				c0.115-0.197,0.172-0.367,0.172-0.514c0-0.166-0.052-0.294-0.155-0.386c-0.102-0.09-0.237-0.137-0.403-0.137
				c-0.154,0-0.273,0.035-0.356,0.107c-0.202,0.19-0.366,0.34-0.492,0.451c-0.126,0.111-0.265,0.216-0.416,0.312
				c-0.15,0.098-0.305,0.167-0.466,0.214c-0.16,0.045-0.337,0.067-0.531,0.067c-0.289,0-0.553-0.07-0.792-0.213
				c-0.239-0.142-0.432-0.354-0.576-0.635c-0.145-0.281-0.218-0.605-0.222-0.973h3.168
				C187.89,472.732,188.219,472.671,188.452,472.551z M184.297,471.812c0.055-0.546,0.212-0.959,0.472-1.238
				c0.259-0.279,0.59-0.418,0.994-0.418c0.424,0,0.764,0.137,1.024,0.412c0.259,0.275,0.409,0.69,0.448,1.244H184.297z"/>
			<path id="XMLID_116_" style="fill:#FAFAFA;" d="M193.879,472.114c-0.319-0.17-0.729-0.316-1.231-0.439
				c-0.425-0.103-0.756-0.19-0.997-0.261c-0.242-0.07-0.434-0.161-0.577-0.27c-0.142-0.109-0.213-0.248-0.213-0.419
				c0-0.186,0.096-0.341,0.29-0.465c0.194-0.126,0.437-0.187,0.73-0.187c0.286,0,0.511,0.047,0.677,0.142
				c0.166,0.095,0.31,0.222,0.433,0.38c0.151,0.19,0.284,0.332,0.401,0.427c0.116,0.095,0.258,0.143,0.424,0.143
				c0.231,0,0.408-0.06,0.532-0.178c0.124-0.119,0.186-0.272,0.186-0.457c0-0.171-0.058-0.345-0.175-0.523
				c-0.116-0.178-0.286-0.34-0.51-0.486c-0.223-0.146-0.502-0.264-0.837-0.35c-0.333-0.088-0.71-0.131-1.13-0.131
				c-0.535,0-0.99,0.085-1.367,0.259c-0.378,0.172-0.665,0.403-0.859,0.691c-0.194,0.289-0.291,0.596-0.291,0.92
				c0,0.364,0.105,0.671,0.315,0.92c0.21,0.249,0.489,0.45,0.84,0.602c0.35,0.153,0.804,0.298,1.362,0.436
				c0.494,0.12,0.849,0.244,1.065,0.375c0.216,0.131,0.323,0.338,0.323,0.622c0,0.187-0.104,0.352-0.311,0.497
				c-0.208,0.144-0.474,0.216-0.798,0.216c-0.4,0-0.715-0.071-0.947-0.213c-0.231-0.143-0.431-0.358-0.597-0.647
				c-0.082-0.15-0.17-0.267-0.261-0.35c-0.091-0.082-0.221-0.124-0.391-0.124c-0.194,0-0.355,0.064-0.481,0.19
				c-0.128,0.126-0.19,0.278-0.19,0.456c0,0.27,0.099,0.537,0.297,0.805c0.198,0.266,0.505,0.489,0.92,0.667
				c0.415,0.178,0.914,0.267,1.495,0.267c0.61,0,1.127-0.082,1.552-0.246c0.425-0.164,0.747-0.406,0.964-0.724
				c0.218-0.319,0.326-0.702,0.326-1.149c0-0.297-0.082-0.56-0.246-0.792C194.438,472.485,194.197,472.284,193.879,472.114z"/>
			<path id="XMLID_115_" style="fill:#FAFAFA;" d="M196.486,469.04c-0.237,0-0.43,0.081-0.579,0.243
				c-0.149,0.162-0.222,0.404-0.222,0.724v4.635c0,0.317,0.073,0.56,0.222,0.73c0.148,0.17,0.341,0.255,0.579,0.255
				c0.238,0,0.433-0.083,0.588-0.249c0.154-0.166,0.231-0.412,0.231-0.737v-4.682c0-0.289-0.077-0.514-0.231-0.677
				C196.919,469.121,196.724,469.04,196.486,469.04z"/>
			<path id="XMLID_114_" style="fill:#FAFAFA;" d="M196.504,466.701c-0.217,0-0.409,0.073-0.573,0.223
				c-0.164,0.149-0.246,0.337-0.246,0.567c0,0.254,0.08,0.45,0.24,0.588c0.16,0.138,0.353,0.208,0.579,0.208
				c0.217,0,0.405-0.071,0.563-0.211c0.158-0.14,0.238-0.335,0.238-0.585c0-0.258-0.081-0.453-0.243-0.588
				C196.9,466.768,196.714,466.701,196.504,466.701z"/>
			<path id="XMLID_111_" style="fill:#FAFAFA;" d="M203.626,469.04c-0.217,0-0.395,0.077-0.535,0.231
				c-0.139,0.155-0.208,0.372-0.208,0.653v0.22c-0.289-0.376-0.602-0.652-0.937-0.829c-0.337-0.175-0.735-0.264-1.194-0.264
				c-0.384,0-0.736,0.068-1.056,0.204c-0.32,0.137-0.604,0.34-0.849,0.609c-0.245,0.269-0.433,0.599-0.566,0.992
				c-0.133,0.391-0.199,0.83-0.199,1.317c0,0.653,0.109,1.228,0.327,1.727c0.217,0.499,0.529,0.886,0.934,1.163
				c0.406,0.277,0.88,0.416,1.422,0.416c0.45,0,0.84-0.091,1.166-0.273c0.327-0.182,0.615-0.447,0.864-0.796
				c-0.008,0.531-0.02,0.915-0.035,1.155c-0.016,0.24-0.07,0.464-0.164,0.673c-0.093,0.21-0.255,0.374-0.486,0.49
				c-0.231,0.117-0.557,0.175-0.977,0.175c-0.205,0-0.388-0.02-0.546-0.056c-0.159-0.038-0.294-0.095-0.406-0.171
				c-0.112-0.078-0.216-0.17-0.309-0.28c-0.093-0.109-0.183-0.217-0.27-0.324c-0.178-0.209-0.386-0.314-0.624-0.314
				c-0.189,0-0.352,0.062-0.486,0.187c-0.135,0.124-0.202,0.285-0.202,0.483c0,0.262,0.119,0.516,0.356,0.763
				c0.238,0.247,0.576,0.449,1.014,0.605c0.439,0.156,0.938,0.234,1.496,0.234c0.609,0,1.119-0.061,1.528-0.184
				c0.41-0.122,0.741-0.311,0.994-0.563c0.253-0.254,0.438-0.574,0.552-0.961c0.115-0.389,0.173-0.851,0.173-1.389v-4.706
				c0-0.384-0.051-0.678-0.155-0.882C204.146,469.142,203.938,469.04,203.626,469.04z M202.599,473.405
				c-0.151,0.29-0.345,0.508-0.586,0.653c-0.239,0.144-0.493,0.217-0.762,0.217c-0.455,0-0.826-0.168-1.113-0.505
				c-0.287-0.336-0.43-0.834-0.43-1.49c0-0.649,0.139-1.15,0.418-1.502s0.649-0.529,1.113-0.529c0.475,0,0.857,0.184,1.148,0.553
				c0.291,0.367,0.436,0.882,0.436,1.543C202.825,472.762,202.749,473.114,202.599,473.405z"/>
			<path id="XMLID_110_" style="fill:#FAFAFA;" d="M210.978,470.108c-0.165-0.339-0.417-0.602-0.753-0.788
				c-0.337-0.186-0.718-0.28-1.146-0.28c-0.439,0-0.828,0.088-1.166,0.264c-0.339,0.176-0.65,0.452-0.935,0.828v-0.196
				c0-0.193-0.034-0.358-0.104-0.493c-0.07-0.134-0.162-0.234-0.276-0.302c-0.115-0.068-0.244-0.101-0.387-0.101
				c-0.233,0-0.417,0.076-0.552,0.228c-0.134,0.152-0.201,0.383-0.201,0.692v4.682c0,0.317,0.076,0.56,0.226,0.73
				c0.15,0.17,0.342,0.255,0.576,0.255c0.241,0,0.438-0.082,0.59-0.246c0.152-0.164,0.228-0.411,0.228-0.74v-2.03
				c0-0.661,0.04-1.111,0.119-1.353c0.11-0.3,0.284-0.537,0.522-0.71c0.237-0.173,0.5-0.258,0.789-0.258
				c0.444,0,0.74,0.142,0.888,0.425c0.148,0.283,0.223,0.691,0.223,1.225v2.7c0,0.317,0.074,0.56,0.226,0.73
				c0.15,0.17,0.345,0.255,0.587,0.255c0.238,0,0.431-0.083,0.579-0.249c0.149-0.166,0.223-0.412,0.223-0.737v-3.015
				c0-0.356-0.017-0.648-0.048-0.878C211.155,470.52,211.085,470.306,210.978,470.108z"/>
			<path id="XMLID_107_" style="fill:#FAFAFA;" d="M217.821,472.551c0.234-0.122,0.35-0.385,0.35-0.793
				c0-0.438-0.114-0.87-0.338-1.294c-0.226-0.423-0.565-0.769-1.019-1.035c-0.453-0.268-0.995-0.4-1.628-0.4
				c-0.487,0-0.93,0.078-1.33,0.234c-0.4,0.157-0.736,0.381-1.009,0.674c-0.273,0.293-0.481,0.644-0.624,1.054
				c-0.142,0.409-0.214,0.853-0.214,1.332c0,1.017,0.289,1.822,0.867,2.415c0.578,0.592,1.387,0.89,2.427,0.89
				c0.455,0,0.858-0.059,1.208-0.178c0.35-0.12,0.64-0.268,0.871-0.448c0.232-0.18,0.405-0.368,0.52-0.564
				c0.115-0.197,0.172-0.367,0.172-0.514c0-0.166-0.051-0.294-0.154-0.386c-0.103-0.09-0.238-0.137-0.404-0.137
				c-0.154,0-0.273,0.035-0.356,0.107c-0.201,0.19-0.366,0.34-0.492,0.451c-0.128,0.111-0.266,0.216-0.416,0.312
				c-0.151,0.098-0.306,0.167-0.466,0.214c-0.161,0.045-0.338,0.067-0.532,0.067c-0.289,0-0.553-0.07-0.792-0.213
				c-0.239-0.142-0.431-0.354-0.576-0.635c-0.145-0.281-0.218-0.605-0.223-0.973h3.169
				C217.26,472.732,217.588,472.671,217.821,472.551z M213.667,471.812c0.056-0.546,0.212-0.959,0.471-1.238
				c0.259-0.279,0.591-0.418,0.995-0.418c0.424,0,0.765,0.137,1.024,0.412c0.259,0.275,0.409,0.69,0.448,1.244H213.667z"/>
			<path id="XMLID_104_" style="fill:#FAFAFA;" d="M224.207,466.63c-0.245,0-0.434,0.085-0.567,0.255
				c-0.132,0.17-0.199,0.421-0.199,0.753v2.392c-0.304-0.331-0.616-0.579-0.937-0.739c-0.32-0.159-0.714-0.24-1.181-0.24
				c-0.807,0-1.458,0.283-1.953,0.848c-0.495,0.566-0.741,1.356-0.741,2.369c0,0.478,0.062,0.923,0.187,1.335
				c0.124,0.412,0.308,0.77,0.549,1.074c0.241,0.304,0.527,0.539,0.857,0.704c0.33,0.164,0.689,0.246,1.077,0.246
				c0.293,0,0.563-0.04,0.81-0.122c0.247-0.081,0.476-0.2,0.688-0.356c0.211-0.156,0.426-0.359,0.643-0.608v0.16
				c0,0.297,0.073,0.525,0.217,0.685c0.145,0.161,0.328,0.24,0.549,0.24c0.226,0,0.41-0.078,0.552-0.231
				c0.143-0.154,0.214-0.386,0.214-0.694v-7.146c0-0.305-0.066-0.534-0.199-0.691C224.641,466.709,224.452,466.63,224.207,466.63z
				 M223.141,473.471c-0.14,0.306-0.328,0.533-0.564,0.682c-0.236,0.149-0.495,0.223-0.781,0.223c-0.281,0-0.539-0.079-0.776-0.236
				c-0.238-0.155-0.425-0.388-0.561-0.696c-0.137-0.309-0.205-0.682-0.205-1.122c0-0.416,0.064-0.78,0.193-1.095
				c0.129-0.315,0.31-0.556,0.543-0.724c0.233-0.168,0.499-0.253,0.795-0.253c0.285,0,0.547,0.082,0.787,0.246
				c0.239,0.165,0.43,0.402,0.57,0.712c0.14,0.311,0.211,0.682,0.211,1.114C223.352,472.78,223.282,473.164,223.141,473.471z"/>
			<path id="XMLID_101_" style="fill:#FAFAFA;" d="M233.586,469.434c-0.407-0.254-0.878-0.382-1.416-0.382
				c-0.467,0-0.859,0.084-1.175,0.252c-0.317,0.168-0.627,0.411-0.932,0.727v-2.475c0-0.297-0.068-0.524-0.202-0.685
				c-0.134-0.16-0.326-0.24-0.575-0.24c-0.237,0-0.423,0.084-0.555,0.252c-0.132,0.168-0.198,0.416-0.198,0.744v7.075
				c0,0.305,0.068,0.535,0.205,0.692c0.136,0.156,0.319,0.234,0.549,0.234c0.226,0,0.412-0.078,0.558-0.234
				c0.146-0.157,0.22-0.388,0.22-0.692v-0.16c0.178,0.205,0.322,0.361,0.43,0.463c0.109,0.103,0.241,0.203,0.395,0.3
				c0.154,0.098,0.341,0.175,0.561,0.234c0.22,0.06,0.454,0.089,0.704,0.089c0.407,0,0.781-0.082,1.119-0.246
				c0.338-0.164,0.626-0.397,0.864-0.698c0.237-0.3,0.418-0.656,0.543-1.065c0.124-0.41,0.187-0.859,0.187-1.35
				c0-0.665-0.112-1.241-0.336-1.725C234.305,470.06,233.991,469.69,233.586,469.434z M232.796,473.845
				c-0.295,0.355-0.646,0.531-1.053,0.531c-0.479,0-0.866-0.174-1.161-0.52c-0.295-0.346-0.442-0.841-0.442-1.487
				c0-0.439,0.069-0.818,0.208-1.136c0.138-0.319,0.328-0.562,0.57-0.73c0.24-0.168,0.516-0.253,0.825-0.253
				c0.3,0,0.564,0.085,0.79,0.253c0.225,0.168,0.399,0.406,0.522,0.715c0.123,0.308,0.184,0.677,0.184,1.104
				C233.238,472.983,233.09,473.49,232.796,473.845z"/>
			<path id="XMLID_100_" style="fill:#FAFAFA;" d="M240.529,469.138c-0.112-0.066-0.229-0.098-0.353-0.098
				c-0.171,0-0.303,0.03-0.395,0.09c-0.093,0.058-0.181,0.173-0.264,0.344c-0.083,0.17-0.176,0.406-0.279,0.706l-1.3,3.71
				l-1.371-3.988c-0.091-0.277-0.195-0.489-0.314-0.638c-0.119-0.148-0.295-0.223-0.528-0.223c-0.135,0-0.264,0.035-0.389,0.107
				c-0.124,0.071-0.222,0.166-0.294,0.285c-0.071,0.118-0.107,0.246-0.107,0.385c0,0.13,0.062,0.341,0.184,0.629l1.994,5.022
				l-0.148,0.363c-0.111,0.265-0.209,0.466-0.294,0.601c-0.085,0.138-0.181,0.234-0.287,0.289c-0.107,0.056-0.254,0.084-0.44,0.084
				c-0.074,0-0.163-0.012-0.266-0.035c-0.083-0.024-0.168-0.037-0.256-0.037c-0.221,0-0.388,0.051-0.5,0.152
				c-0.113,0.101-0.17,0.245-0.17,0.43c0,0.273,0.118,0.461,0.356,0.565c0.237,0.102,0.593,0.154,1.068,0.154
				c0.487,0,0.873-0.074,1.161-0.223c0.287-0.148,0.517-0.361,0.691-0.638c0.175-0.277,0.353-0.659,0.535-1.145l2.113-5.532
				c0.051-0.142,0.095-0.283,0.13-0.421c0.037-0.139,0.061-0.246,0.078-0.321c0-0.123-0.032-0.239-0.093-0.35
				C240.729,469.291,240.642,469.203,240.529,469.138z"/>
		</g>
		<g id="XMLID_63_">
			<g id="XMLID_78_">
				<path id="XMLID_98_" style="fill:#FAFAFA;" d="M262.93,466.626c-0.533,0-0.954,0.069-1.26,0.204
					c-0.307,0.137-0.527,0.354-0.654,0.652c-0.129,0.301-0.191,0.702-0.191,1.211v0.487h-0.387c-0.543,0-0.815,0.192-0.815,0.582
					c0,0.174,0.066,0.316,0.197,0.423c0.132,0.111,0.315,0.164,0.558,0.164h0.447v4.294c0,0.319,0.074,0.563,0.227,0.73
					c0.154,0.17,0.344,0.254,0.574,0.254c0.243,0,0.438-0.084,0.589-0.254c0.156-0.167,0.231-0.411,0.231-0.73v-4.294h0.395
					c0.29,0,0.517-0.035,0.68-0.108c0.166-0.071,0.245-0.24,0.245-0.502c0-0.374-0.306-0.56-0.926-0.56h-0.395v-0.386
					c0-0.322,0.043-0.568,0.122-0.74c0.087-0.172,0.273-0.259,0.566-0.259c0.107,0,0.241,0.014,0.389,0.034
					c0.156,0.026,0.267,0.038,0.329,0.038c0.134,0,0.252-0.054,0.348-0.16c0.101-0.108,0.15-0.236,0.15-0.384
					C264.35,466.856,263.879,466.626,262.93,466.626z"/>
				<path id="XMLID_97_" style="fill:#FAFAFA;" d="M268.089,469.292c-0.32-0.171-0.647-0.255-0.99-0.255
					c-0.342,0-0.611,0.084-0.818,0.255c-0.203,0.171-0.4,0.421-0.592,0.755c-0.014-0.334-0.08-0.584-0.198-0.755
					c-0.119-0.171-0.313-0.255-0.583-0.255c-0.525,0-0.788,0.364-0.788,1.093v4.513c0,0.323,0.078,0.569,0.225,0.733
					c0.15,0.168,0.341,0.25,0.579,0.25c0.237,0,0.432-0.081,0.586-0.247c0.151-0.163,0.234-0.41,0.234-0.737v-1.355
					c0-0.486,0.014-0.899,0.044-1.239c0.034-0.336,0.09-0.63,0.17-0.878c0.083-0.243,0.201-0.425,0.353-0.553
					c0.15-0.122,0.345-0.186,0.582-0.186c0.171,0,0.373,0.037,0.602,0.108c0.226,0.073,0.371,0.112,0.433,0.112
					c0.157,0,0.304-0.064,0.441-0.195c0.135-0.126,0.204-0.292,0.204-0.488C268.571,469.69,268.411,469.463,268.089,469.292z"/>
				<path id="XMLID_94_" style="fill:#FAFAFA;" d="M274.176,472.549c0.233-0.122,0.351-0.386,0.351-0.792
					c0-0.441-0.113-0.87-0.339-1.296c-0.222-0.423-0.566-0.77-1.018-1.034c-0.454-0.27-0.997-0.403-1.629-0.403
					c-0.488,0-0.931,0.078-1.33,0.233c-0.401,0.156-0.735,0.38-1.007,0.674c-0.276,0.295-0.484,0.643-0.624,1.055
					c-0.144,0.41-0.217,0.855-0.217,1.333c0,1.017,0.292,1.823,0.87,2.418c0.577,0.593,1.385,0.888,2.429,0.888
					c0.453,0,0.857-0.06,1.207-0.179c0.349-0.117,0.639-0.268,0.874-0.446c0.232-0.182,0.405-0.368,0.522-0.566
					c0.112-0.195,0.167-0.365,0.167-0.512c0-0.167-0.048-0.293-0.152-0.386c-0.105-0.092-0.238-0.139-0.406-0.139
					c-0.152,0-0.271,0.038-0.355,0.109c-0.202,0.189-0.367,0.34-0.494,0.449c-0.127,0.113-0.264,0.217-0.415,0.312
					c-0.15,0.097-0.307,0.17-0.466,0.213c-0.16,0.048-0.336,0.069-0.531,0.069c-0.29,0-0.552-0.069-0.793-0.212
					c-0.24-0.145-0.431-0.356-0.578-0.635c-0.144-0.281-0.216-0.607-0.222-0.974h3.171
					C273.615,472.73,273.943,472.67,274.176,472.549z M270.021,471.809c0.054-0.546,0.213-0.957,0.472-1.236
					c0.259-0.28,0.591-0.417,0.995-0.417c0.426,0,0.764,0.136,1.025,0.412c0.26,0.273,0.407,0.688,0.446,1.241H270.021z"/>
				<path id="XMLID_91_" style="fill:#FAFAFA;" d="M280.916,472.549c0.231-0.122,0.351-0.386,0.351-0.792
					c0-0.441-0.116-0.87-0.34-1.296c-0.222-0.423-0.563-0.77-1.013-1.034c-0.46-0.27-1.003-0.403-1.633-0.403
					c-0.486,0-0.932,0.078-1.33,0.233c-0.401,0.156-0.737,0.38-1.009,0.674c-0.273,0.295-0.481,0.643-0.622,1.055
					c-0.145,0.41-0.217,0.855-0.217,1.333c0,1.017,0.29,1.823,0.868,2.418c0.58,0.593,1.387,0.888,2.429,0.888
					c0.453,0,0.86-0.06,1.208-0.179c0.347-0.117,0.641-0.268,0.872-0.446c0.234-0.182,0.408-0.368,0.519-0.566
					c0.116-0.195,0.171-0.365,0.171-0.512c0-0.167-0.047-0.293-0.15-0.386c-0.104-0.092-0.239-0.139-0.406-0.139
					c-0.151,0-0.27,0.038-0.355,0.109c-0.203,0.189-0.368,0.34-0.492,0.449c-0.128,0.113-0.264,0.217-0.415,0.312
					c-0.153,0.097-0.307,0.17-0.469,0.213c-0.157,0.048-0.336,0.069-0.528,0.069c-0.291,0-0.555-0.069-0.795-0.212
					c-0.238-0.145-0.431-0.356-0.575-0.635c-0.143-0.281-0.218-0.607-0.222-0.974h3.17
					C280.354,472.73,280.682,472.67,280.916,472.549z M276.762,471.809c0.053-0.546,0.211-0.957,0.469-1.236
					c0.261-0.28,0.592-0.417,0.995-0.417c0.425,0,0.763,0.136,1.026,0.412c0.257,0.273,0.407,0.688,0.447,1.241H276.762z"/>
				<path id="XMLID_88_" style="fill:#FAFAFA;" d="M286.926,469.434c-0.42-0.256-0.882-0.386-1.379-0.386
					c-0.415,0-0.79,0.089-1.114,0.267c-0.331,0.176-0.649,0.452-0.953,0.827v-0.195c0-0.296-0.071-0.519-0.218-0.677
					c-0.143-0.156-0.329-0.234-0.56-0.234c-0.233,0-0.418,0.078-0.553,0.228c-0.134,0.155-0.2,0.382-0.2,0.692v6.995
					c0,0.355,0.051,0.62,0.146,0.807c0.102,0.183,0.301,0.275,0.607,0.275c0.518,0,0.777-0.359,0.777-1.069v-2.433
					c0.287,0.358,0.586,0.634,0.901,0.816c0.314,0.187,0.704,0.279,1.165,0.279c0.385,0,0.741-0.076,1.079-0.227
					c0.334-0.153,0.622-0.372,0.868-0.654c0.245-0.283,0.441-0.632,0.58-1.05c0.14-0.419,0.21-0.878,0.21-1.376
					c0-0.677-0.122-1.261-0.366-1.758C287.675,470.069,287.346,469.693,286.926,469.434z M286.451,473.437
					c-0.137,0.313-0.32,0.546-0.552,0.704c-0.229,0.154-0.48,0.233-0.748,0.233c-0.454,0-0.828-0.179-1.133-0.536
					c-0.306-0.358-0.459-0.862-0.459-1.504c0-0.686,0.154-1.204,0.462-1.558c0.306-0.35,0.684-0.527,1.13-0.527
					c0.281,0,0.541,0.084,0.77,0.248c0.229,0.163,0.411,0.397,0.541,0.705c0.13,0.306,0.196,0.674,0.196,1.101
					C286.658,472.745,286.588,473.123,286.451,473.437z"/>
				<path id="XMLID_87_" style="fill:#FAFAFA;" d="M289.9,469.037c-0.238,0-0.428,0.079-0.58,0.245
					c-0.146,0.162-0.222,0.403-0.222,0.721v4.642c0,0.313,0.076,0.555,0.222,0.729c0.152,0.17,0.342,0.254,0.58,0.254
					c0.238,0,0.432-0.082,0.588-0.25c0.154-0.165,0.231-0.41,0.231-0.732v-4.688c0-0.287-0.078-0.513-0.231-0.675
					C290.332,469.116,290.138,469.037,289.9,469.037z"/>
				<path id="XMLID_86_" style="fill:#FAFAFA;" d="M289.917,466.696c-0.217,0-0.408,0.076-0.571,0.223
					c-0.166,0.149-0.248,0.339-0.248,0.568c0,0.253,0.081,0.447,0.242,0.586c0.159,0.138,0.35,0.209,0.577,0.209
					c0.22,0,0.408-0.071,0.566-0.209c0.157-0.14,0.236-0.335,0.236-0.585c0-0.257-0.082-0.454-0.244-0.591
					C290.314,466.763,290.13,466.696,289.917,466.696z"/>
				<path id="XMLID_85_" style="fill:#FAFAFA;" d="M297.258,474.066l-1.662-2.614l0.86-0.789c0.438-0.396,0.659-0.714,0.659-0.951
					c0-0.192-0.068-0.354-0.2-0.483c-0.139-0.128-0.306-0.193-0.51-0.193c-0.168,0-0.313,0.043-0.431,0.13
					c-0.121,0.086-0.29,0.251-0.517,0.486l-1.822,1.914v-3.933c0-0.329-0.075-0.582-0.221-0.751
					c-0.148-0.171-0.344-0.257-0.593-0.257c-0.255,0-0.456,0.093-0.596,0.283c-0.135,0.189-0.207,0.462-0.207,0.821v6.913
					c0,0.323,0.073,0.569,0.215,0.733c0.141,0.168,0.339,0.25,0.588,0.25c0.213,0,0.406-0.084,0.566-0.254
					c0.165-0.167,0.248-0.406,0.248-0.718v-1.291l0.88-0.83l1.427,2.353c0.181,0.278,0.329,0.471,0.436,0.58
					c0.106,0.109,0.26,0.16,0.458,0.16c0.226,0,0.413-0.073,0.553-0.221c0.142-0.151,0.214-0.352,0.214-0.61
					c0-0.089-0.029-0.19-0.082-0.289C297.469,474.406,297.379,474.262,297.258,474.066z"/>
				<path id="XMLID_84_" style="fill:#FAFAFA;" d="M299.45,473.84c-0.25,0-0.458,0.087-0.63,0.261
					c-0.17,0.173-0.256,0.381-0.256,0.622c0,0.287,0.09,0.51,0.268,0.665c0.179,0.159,0.389,0.238,0.634,0.238
					c0.237,0,0.444-0.079,0.624-0.241c0.174-0.157,0.264-0.379,0.264-0.662c0-0.243-0.089-0.454-0.264-0.626
					C299.909,473.927,299.698,473.84,299.45,473.84z"/>
				<path id="XMLID_83_" style="fill:#FAFAFA;" d="M306.835,472.914c-0.167,0-0.308,0.054-0.422,0.156
					c-0.113,0.104-0.219,0.245-0.318,0.427c-0.177,0.309-0.381,0.538-0.616,0.689c-0.231,0.15-0.509,0.225-0.835,0.225
					c-0.24,0-0.463-0.045-0.665-0.141c-0.201-0.093-0.372-0.229-0.516-0.409c-0.143-0.18-0.252-0.398-0.325-0.652
					c-0.075-0.256-0.114-0.537-0.114-0.842c0-0.646,0.147-1.161,0.439-1.533c0.294-0.375,0.682-0.561,1.158-0.561
					c0.333,0,0.607,0.075,0.821,0.227c0.219,0.148,0.424,0.375,0.622,0.674c0.109,0.158,0.209,0.269,0.299,0.339
					c0.09,0.068,0.201,0.104,0.338,0.104c0.202,0,0.377-0.068,0.524-0.203c0.143-0.135,0.214-0.3,0.214-0.492
					c0-0.192-0.063-0.397-0.192-0.617c-0.128-0.218-0.314-0.423-0.556-0.62c-0.245-0.192-0.54-0.352-0.89-0.474
					c-0.353-0.123-0.737-0.184-1.157-0.184c-0.674,0-1.26,0.139-1.747,0.419c-0.486,0.279-0.859,0.674-1.113,1.183
					c-0.259,0.511-0.387,1.098-0.387,1.765c0,0.981,0.281,1.764,0.841,2.349c0.562,0.582,1.344,0.876,2.348,0.876
					c0.469,0,0.893-0.065,1.269-0.192c0.377-0.126,0.688-0.295,0.934-0.502c0.249-0.207,0.434-0.425,0.553-0.656
					c0.121-0.229,0.182-0.446,0.182-0.646c0-0.169-0.066-0.331-0.198-0.481C307.198,472.99,307.033,472.914,306.835,472.914z"/>
				<path id="XMLID_80_" style="fill:#FAFAFA;" d="M313.647,469.95c-0.288-0.29-0.629-0.517-1.027-0.674
					c-0.4-0.161-0.846-0.239-1.336-0.239c-0.483,0-0.924,0.078-1.326,0.234c-0.399,0.158-0.737,0.38-1.019,0.669
					c-0.281,0.288-0.498,0.637-0.649,1.045c-0.146,0.408-0.224,0.858-0.224,1.349c0,0.485,0.076,0.929,0.219,1.332
					c0.152,0.401,0.369,0.75,0.657,1.048c0.285,0.292,0.627,0.521,1.016,0.676c0.392,0.159,0.835,0.239,1.326,0.239
					c0.492,0,0.937-0.08,1.336-0.234c0.394-0.158,0.735-0.382,1.02-0.675c0.286-0.291,0.502-0.641,0.656-1.05
					c0.146-0.408,0.222-0.855,0.222-1.336c0-0.489-0.075-0.932-0.221-1.339C314.148,470.593,313.933,470.246,313.647,469.95z
					 M312.455,473.866c-0.29,0.372-0.682,0.557-1.171,0.557c-0.324,0-0.605-0.086-0.846-0.253c-0.24-0.168-0.424-0.41-0.553-0.729
					c-0.129-0.317-0.193-0.684-0.193-1.108c0-0.428,0.066-0.803,0.197-1.125c0.131-0.321,0.314-0.563,0.556-0.727
					c0.242-0.164,0.522-0.246,0.84-0.246c0.489,0,0.881,0.182,1.171,0.555c0.289,0.367,0.436,0.881,0.436,1.543
					C312.891,472.984,312.744,473.496,312.455,473.866z"/>
				<path id="XMLID_79_" style="fill:#FAFAFA;" d="M323.569,469.31c-0.32-0.173-0.705-0.262-1.146-0.262
					c-0.381,0-0.726,0.081-1.039,0.241c-0.313,0.161-0.606,0.408-0.881,0.738c-0.192-0.326-0.431-0.572-0.725-0.735
					c-0.292-0.162-0.641-0.243-1.048-0.243c-0.394,0-0.747,0.079-1.07,0.241c-0.319,0.156-0.619,0.403-0.902,0.738v-0.153
					c0-0.261-0.074-0.466-0.222-0.616c-0.15-0.145-0.334-0.222-0.557-0.222c-0.227,0-0.412,0.078-0.555,0.239
					c-0.14,0.157-0.21,0.389-0.21,0.694v4.636c0,0.336,0.078,0.591,0.235,0.765c0.156,0.171,0.357,0.258,0.604,0.258
					c0.248,0,0.447-0.087,0.603-0.258c0.15-0.173,0.226-0.428,0.226-0.765v-2.188c0-0.684,0.086-1.206,0.253-1.566
					c0.168-0.369,0.516-0.55,1.048-0.55c0.264,0,0.459,0.072,0.582,0.22c0.121,0.142,0.198,0.331,0.226,0.552
					c0.027,0.226,0.04,0.544,0.04,0.953v2.581c0,0.341,0.078,0.594,0.232,0.767c0.148,0.17,0.349,0.255,0.594,0.255
					c0.254,0,0.455-0.085,0.611-0.255c0.156-0.173,0.231-0.426,0.231-0.767v-2.153c0-0.695,0.062-1.178,0.178-1.452
					c0.109-0.209,0.259-0.383,0.45-0.508c0.192-0.125,0.396-0.191,0.609-0.191c0.264,0,0.463,0.072,0.596,0.215
					c0.128,0.142,0.209,0.319,0.239,0.529c0.029,0.209,0.043,0.486,0.043,0.836v2.725c0,0.336,0.079,0.591,0.235,0.765
					c0.157,0.171,0.356,0.258,0.603,0.258c0.253,0,0.458-0.085,0.612-0.255c0.154-0.173,0.229-0.426,0.229-0.767v-3.163
					c0-0.629-0.068-1.09-0.206-1.385C324.128,469.734,323.888,469.484,323.569,469.31z"/>
			</g>
			<g id="XMLID_64_">
				<path id="XMLID_77_" style="fill:#FAFAFA;" d="M245.273,471.941c-0.001-0.004-0.001-0.006-0.001-0.011
					C245.272,471.935,245.272,471.937,245.273,471.941z"/>
				<path id="XMLID_76_" style="fill:#FAFAFA;" d="M245.355,472.458c0.001,0,0.001,0,0.001,0c-0.031-0.147-0.055-0.294-0.073-0.438
					C245.301,472.166,245.326,472.313,245.355,472.458z"/>
				<path id="XMLID_75_" style="fill:#FAFAFA;" d="M245.891,473.962c-0.004-0.006-0.007-0.013-0.01-0.021
					C245.885,473.949,245.888,473.956,245.891,473.962z"/>
				<path id="XMLID_74_" style="fill:#FAFAFA;" d="M245.84,473.862c-0.014-0.027-0.027-0.056-0.041-0.084
					C245.813,473.808,245.826,473.835,245.84,473.862z"/>
				<path id="XMLID_73_" style="fill:#FAFAFA;" d="M245.506,473.038c0.079,0.25,0.175,0.492,0.286,0.724
					c-0.113-0.236-0.206-0.479-0.284-0.724H245.506z"/>
				<path id="XMLID_72_" style="fill:#FAFAFA;" d="M250.736,465.178l-0.076-0.259c0.299-0.063,0.524-0.329,0.524-0.646
					c0-0.364-0.297-0.659-0.66-0.659c-0.365,0-0.66,0.295-0.66,0.659c0,0.317,0.225,0.583,0.522,0.646l0.084,0.289
					c-1.021,0.14-1.834,0.539-1.834,0.539l0.144,0.441c0.618-0.206,1.153-0.331,1.64-0.383c0.476-0.051,0.834-0.073,1.126-0.073
					c0.314,0,0.544,0.025,0.809,0.069l0.075-0.476C252.429,465.325,251.698,465.099,250.736,465.178z"/>
				<path id="XMLID_71_" style="fill:#FAFAFA;" d="M245.453,467.685c-0.017,0.024-0.497,0.465-0.876,1.28
					c-0.016-0.026-0.035-0.051-0.056-0.074c-0.113-0.124-0.272-0.187-0.474-0.184c-0.002,0-0.006,0-0.01,0
					c-0.125,0-0.21-0.042-0.266-0.092c0.056-0.071,0.089-0.161,0.089-0.258c0-0.231-0.187-0.419-0.419-0.419
					c-0.23,0-0.417,0.188-0.417,0.419c0,0.231,0.187,0.417,0.417,0.417c0.037,0,0.071-0.005,0.105-0.012
					c0.103,0.113,0.266,0.214,0.504,0.209c0.123-0.001,0.214,0.03,0.273,0.097c0.07,0.076,0.093,0.185,0.1,0.267
					c-0.001,0.002-0.001,0.004-0.002,0.004c-0.272,0.743-0.195,1.668-0.195,1.668l0.661,0.026c0.013-0.336,0.062-0.926,0.232-1.393
					c0.328-0.906,0.741-1.472,0.757-1.496l0.004-0.005c0.024-0.031,0.047-0.06,0.071-0.089l-0.196-0.142L245.453,467.685z"/>
				<path id="XMLID_70_" style="fill:#FAFAFA;" d="M257.293,466.284c-0.23,0-0.418,0.187-0.418,0.417
					c0,0.037,0.006,0.071,0.015,0.104c-0.115,0.104-0.214,0.267-0.211,0.507c0.002,0.123-0.03,0.212-0.096,0.273
					c-0.053,0.047-0.12,0.072-0.185,0.088c-0.492-0.689-1.097-1.109-1.097-1.109l-0.474,0.508c0.358,0.326,0.724,0.734,1.08,1.244
					c0.246,0.352,0.499,0.806,0.71,1.259l0.64-0.304c0,0-0.292-0.722-0.704-1.369c0.071-0.025,0.143-0.064,0.207-0.12
					c0.125-0.113,0.187-0.273,0.183-0.474c-0.001-0.13,0.041-0.218,0.093-0.276c0.071,0.054,0.16,0.089,0.257,0.089
					c0.232,0,0.419-0.187,0.419-0.419C257.712,466.471,257.525,466.284,257.293,466.284z"/>
				<path id="XMLID_69_" style="fill:#FAFAFA;" d="M255.633,472.034c-0.881,0.429-2.33,0.996-4.237,1.262
					c-0.749,0.104-1.474,0.142-2.143,0.142c-0.869,0-1.637-0.065-2.226-0.139c-0.673-0.085-1.198-0.189-1.52-0.261
					c0.078,0.245,0.171,0.488,0.284,0.724c0.002,0.006,0.005,0.013,0.008,0.017c0.013,0.027,0.027,0.056,0.041,0.084
					c0.013,0.027,0.027,0.054,0.041,0.079c0.004,0.007,0.007,0.015,0.01,0.021c0.189,0.357,0.417,0.684,0.675,0.968
					c0.9,0.984,1.816,1.139,1.825,1.141l0.015,0.002l0.013,0.005c0.009,0.003,0.821,0.265,2.056,0.265
					c1.216,0,2.409-0.245,3.546-0.729c0.842-0.431,1.639-1.085,2.033-1.668c0.305-0.452,0.526-0.934,0.656-1.434
					c0.07-0.266,0.125-0.693,0.092-1.141C256.555,471.539,256.163,471.776,255.633,472.034z"/>
				<path id="XMLID_65_" style="fill:#FAFAFA;" d="M252.322,466.152c-0.264-0.043-0.477-0.068-0.777-0.068
					c-0.279,0-0.626,0.022-1.089,0.071c-0.465,0.049-0.982,0.171-1.583,0.373c-0.842,0.282-1.604,0.724-2.204,1.28l-0.02,0.019
					c-0.089,0.081-0.275,0.254-0.488,0.526c-0.026,0.037-0.408,0.578-0.709,1.408c-0.226,0.622-0.216,1.527-0.216,1.537v0.002
					c0,0.212,0.012,0.423,0.036,0.632c0,0.005,0,0.007,0.001,0.011c0.002,0.027,0.007,0.052,0.01,0.079
					c0.018,0.144,0.043,0.291,0.074,0.438c0.438,0.112,3.048,0.721,5.966,0.314c1.829-0.254,3.218-0.795,4.061-1.204
					c0.701-0.34,1.151-0.647,1.325-0.774c-0.173-0.643-0.651-1.65-1.089-2.279C254.367,466.726,253.016,466.266,252.322,466.152z
					 M248.679,471.41c-0.971,0-1.759-0.787-1.759-1.759c0-0.972,0.788-1.761,1.759-1.761c0.973,0,1.76,0.788,1.76,1.761
					C250.439,470.624,249.652,471.41,248.679,471.41z M253.828,470.114c-0.601,0-1.089-0.489-1.089-1.09
					c0-0.602,0.488-1.089,1.089-1.089c0.601,0,1.089,0.487,1.089,1.089C254.918,469.625,254.429,470.114,253.828,470.114z"/>
			</g>
		</g>
	</g>
</g>
</svg>
